<?xml version="1.0" encoding="utf-8"?>
<!-- Generator: Adobe Illustrator 16.0.0, SVG Export Plug-In . SVG Version: 6.00 Build 0)  -->
<!DOCTYPE svg PUBLIC "-//W3C//DTD SVG 1.1//EN" "http://www.w3.org/Graphics/SVG/1.1/DTD/svg11.dtd">
<svg version="1.1" id="Layer_1" xmlns="http://www.w3.org/2000/svg" xmlns:xlink="http://www.w3.org/1999/xlink" x="0px" y="0px"
	 width="50px" height="50px" viewBox="0 0 50 50" enable-background="new 0 0 50 50" xml:space="preserve">
<g>
	<path fill="#EC1C24" d="M7.244,25c0-3.688-2.734-6.697-6.283-7.237C0.414,20.084,0,22.406,0,25c0,2.461,0.274,4.916,0.96,7.23
		C4.509,31.697,7.244,28.688,7.244,25z"/>
	<path fill="#EC1C24" d="M11.473,22.679c1.288,0,2.328,1.041,2.328,2.321c0,1.281-1.04,2.321-2.328,2.321
		c-1.28,0-2.321-1.04-2.321-2.321C9.152,23.72,10.192,22.679,11.473,22.679z"/>
	<path fill="#EC1C24" d="M42.757,25c0,3.688,2.734,6.697,6.283,7.23C49.586,29.916,50,27.595,50,25c0-2.461-0.268-4.916-0.96-7.237
		C45.491,18.169,42.757,21.312,42.757,25z"/>
	<circle fill="#EC1C24" cx="38.527" cy="25" r="2.321"/>
	<path fill="#EC1C24" d="M25,42.757c-3.688,0-6.697,2.734-7.237,6.283C20.084,49.586,22.406,50,25,50c2.454,0,4.909-0.268,7.23-0.96
		C31.697,45.491,28.683,42.757,25,42.757z"/>
	<circle fill="#EC1C24" cx="25" cy="38.527" r="2.321"/>
	<path fill="#EC1C24" d="M25,7.244c3.683,0,6.697-2.734,7.23-6.283C29.909,0.414,27.588,0,25,0c-2.461,0-4.916,0.274-7.237,0.96
		C18.169,4.509,21.312,7.244,25,7.244z"/>
	<path fill="#EC1C24" d="M25,9.152c1.28,0,2.321,1.041,2.321,2.321c0,1.288-1.041,2.328-2.321,2.328s-2.321-1.04-2.321-2.328
		C22.679,10.192,23.72,9.152,25,9.152z"/>
	<path fill="#EC1C24" d="M37.566,37.566c-2.588,2.588-2.867,6.697-0.546,9.565c4.229-2.468,7.644-6.017,10.111-10.111
		C44.264,34.699,40.154,34.979,37.566,37.566z"/>
	<ellipse fill="#EC1C24" cx="34.565" cy="34.565" rx="2.321" ry="2.321"/>
	<path fill="#EC1C24" d="M12.433,12.433c2.595-2.594,2.868-6.697,0.547-9.565C8.745,5.33,5.33,8.878,2.868,12.98
		C5.736,15.161,9.839,15.028,12.433,12.433z"/>
	<path fill="#EC1C24" d="M13.82,13.741c0.908-0.907,2.382-0.907,3.289,0c0.908,0.907,0.908,2.381,0,3.281
		c-0.906,0.908-2.381,0.908-3.289,0C12.914,16.122,12.914,14.647,13.82,13.741z"/>
	<path fill="#EC1C24" d="M37.566,12.433c2.588,2.595,6.697,2.868,9.565,0.547c-2.468-4.235-6.017-7.65-10.111-10.112
		C34.699,5.603,34.979,9.699,37.566,12.433z"/>
	<path fill="#EC1C24" d="M32.871,13.66c0.907-0.906,2.388-0.906,3.295,0c0.907,0.908,0.907,2.382,0,3.289
		c-0.907,0.908-2.388,0.908-3.295,0C31.963,16.042,31.963,14.568,32.871,13.66z"/>
	<path fill="#EC1C24" d="M12.433,37.566c-2.594-2.588-6.697-2.867-9.565-0.546c2.461,4.229,6.01,7.644,10.112,10.111
		C15.161,44.264,15.028,40.154,12.433,37.566z"/>
	<path fill="#EC1C24" d="M13.8,32.871c0.908-0.908,2.382-0.908,3.289,0c0.908,0.907,0.908,2.374,0,3.282
		c-0.907,0.906-2.381,0.906-3.289,0C12.894,35.245,12.894,33.778,13.8,32.871z"/>
</g>
</svg>
