<?xml version="1.0" encoding="utf-8"?>
<!-- Generator: Adobe Illustrator 16.0.0, SVG Export Plug-In . SVG Version: 6.00 Build 0)  -->
<!DOCTYPE svg PUBLIC "-//W3C//DTD SVG 1.1//EN" "http://www.w3.org/Graphics/SVG/1.1/DTD/svg11.dtd">
<svg version="1.1" id="Layer_1" xmlns="http://www.w3.org/2000/svg" xmlns:xlink="http://www.w3.org/1999/xlink" x="0px" y="0px"
	 width="50px" height="50px" viewBox="0 0 50 50" enable-background="new 0 0 50 50" xml:space="preserve">
<g>
	<path fill="#8AD2F0" d="M23.045,0c1.331,0,2.662,0,3.993,0c0.083,0.083,0.165,0.083,0.251,0.083
		c0.747,0.084,1.496,0.167,2.245,0.334c4.992,0.919,9.233,3.092,12.895,6.602c2.413,2.256,4.244,5.014,5.575,8.022
		c1.082,2.423,1.747,4.93,1.911,7.521c0.085,1.839,0.167,3.594-0.082,5.431c-0.331,2.841-1.164,5.601-2.413,8.191
		c-1.665,3.258-3.827,6.016-6.654,8.272c-2.414,1.92-5.076,3.424-8.07,4.343c-3.161,1.005-6.406,1.423-9.734,1.087
		c-2.08-0.164-4.076-0.582-5.989-1.251c-4.243-1.423-7.904-3.845-10.815-7.272c-3.162-3.676-5.159-7.854-5.908-12.7
		C0.167,28.078,0.167,27.41,0,26.823c0-1.253,0-2.507,0-3.761c0.083-0.083,0.083-0.167,0.083-0.25c0-0.835,0.167-1.671,0.333-2.507
		C1.664,14.122,4.742,9.108,9.651,5.265c3.494-2.757,7.404-4.429,11.729-5.015C21.963,0.167,22.546,0.25,23.045,0z M46.008,24.985
		C45.922,13.454,36.604,4.178,25.042,4.178c-11.481,0-20.882,9.442-20.799,20.89c0,11.531,9.401,20.807,20.964,20.726
		C36.689,45.794,46.008,36.35,46.008,24.985z"/>
	<path fill="#111212" d="M46.008,24.985c0.082,11.365-9.318,20.809-20.8,20.89c-11.563,0-20.964-9.275-21.048-20.807
		C4.077,13.621,13.478,4.262,24.958,4.178C36.604,4.095,45.922,13.454,46.008,24.985z M25.542,38.521c1.081,0,2.079-0.082,3.16-0.25
		c2.413-0.5,4.494-1.42,6.156-3.342c2.247-2.758,2.579-7.688-1.913-10.112c-1.081-0.584-2.161-1.002-3.328-1.252
		c-2.078-0.502-4.242-1.003-6.321-1.587c-0.916-0.251-1.831-0.585-2.663-1.171c-1.415-0.918-1.665-2.506-0.832-3.927
		c0.499-0.836,1.247-1.42,2.162-1.754c1.498-0.586,2.995-0.502,4.493-0.167c2.911,0.584,4.409,2.256,4.658,5.097
		c0,0.25,0.167,0.25,0.334,0.25c1.331-0.167,2.662-0.334,3.992-0.501c0.249,0,0.333-0.084,0.249-0.418
		c-0.581-3.176-2.328-5.515-5.323-6.853c-2.497-1.169-5.075-1.42-7.738-1.002c-1.914,0.251-3.661,0.836-5.241,2.089
		c-3.244,2.423-3.91,8.691,1.082,11.03c0.25,0.083,0.499,0.251,0.749,0.334c2.246,0.919,4.576,1.337,6.904,1.838
		c1.249,0.25,2.579,0.418,3.745,1.003c0.998,0.419,1.747,1.171,1.912,2.339c0.334,2.257-0.665,3.928-2.91,4.597
		c-1.58,0.502-3.246,0.502-4.826,0.336c-3.328-0.336-5.324-2.591-5.324-5.933c0-0.419-0.166-0.419-0.499-0.419
		c-1.248,0.167-2.496,0.419-3.744,0.584c-0.665,0.085-0.665,0.085-0.583,0.753c0.749,3.76,2.746,6.352,6.407,7.604
		C22.047,38.354,23.794,38.521,25.542,38.521z"/>
	<path fill="#FEFEFE" d="M25.542,38.521c-1.748,0-3.495-0.25-5.159-0.75c-3.743-1.172-5.657-3.845-6.406-7.606
		c-0.166-0.668-0.083-0.668,0.583-0.75c1.248-0.168,2.496-0.418,3.744-0.587c0.333-0.082,0.499,0,0.499,0.419
		c0,3.341,1.997,5.515,5.325,5.933c1.665,0.168,3.245,0.168,4.824-0.335c2.247-0.668,3.245-2.338,2.913-4.595
		c-0.166-1.172-0.915-1.922-1.913-2.34c-1.165-0.5-2.496-0.752-3.743-1.002c-2.331-0.503-4.659-0.92-6.906-1.84
		c-0.249-0.083-0.499-0.251-0.748-0.334c-4.992-2.34-4.327-8.606-1.082-11.03c1.581-1.171,3.328-1.839,5.241-2.089
		c2.663-0.334,5.242-0.084,7.736,1.003c2.913,1.336,4.743,3.592,5.325,6.852c0.084,0.334-0.084,0.334-0.249,0.418
		c-1.333,0.167-2.663,0.334-3.994,0.501c-0.167,0-0.333,0-0.333-0.251c-0.249-2.842-1.747-4.512-4.659-5.098
		c-1.496-0.334-3.077-0.334-4.491,0.167c-0.916,0.334-1.665,0.92-2.164,1.755c-0.916,1.421-0.583,2.926,0.832,3.928
		c0.833,0.584,1.747,0.919,2.663,1.169c2.079,0.586,4.161,1.087,6.324,1.588c1.164,0.334,2.245,0.752,3.327,1.253
		c4.492,2.421,4.159,7.354,1.914,10.11c-1.581,1.923-3.745,2.927-6.157,3.343C27.62,38.439,26.538,38.521,25.542,38.521z"/>
</g>
</svg>
